<svg id="Layer_1" data-name="Layer 1" xmlns="http://www.w3.org/2000/svg" viewBox="0 0 357.81 38.28"><defs><style>.cls-1{fill:#fff;}</style></defs><title>popagenda-logo</title><path class="cls-1" d="M57.9,62.35c4.28,0,7.72-4.13,7.72-9.16S62.18,44,57.9,44H43.47V39.46H58a13.75,13.75,0,0,1,0,27.47H49v9.86H43.47V62.35Z" transform="translate(-43.47 -38.51)"/><path class="cls-1" d="M144.87,62.35c4.28,0,7.71-4.13,7.71-9.16S149.15,44,144.87,44H130.43V39.46H145a13.75,13.75,0,0,1,0,27.47h-9v9.86h-5.58V62.35Z" transform="translate(-43.47 -38.51)"/><path class="cls-1" d="M198.6,76.79H193L181.68,49.25l-.11-.3v0h0v0l-.11.3L170.13,76.79h-5.6l15.33-37.33h3.4Z" transform="translate(-43.47 -38.51)"/><path class="cls-1" d="M212.73,57.62c0,7,5.13,14.59,13.39,14.59v4.58a19.14,19.14,0,0,1,0-38.28c5.47,0,10.4,1.89,13.83,5.72l-3.63,3.64a13,13,0,0,0-10.2-4.78C218.1,43.09,212.73,49.51,212.73,57.62Zm28.64-2.24V60H228V55.38Z" transform="translate(-43.47 -38.51)"/><path class="cls-1" d="M276.88,39.46V44H252V39.46Zm-3.53,20.25H252V55.08h21.31ZM252,72.21h24.84v4.58H252Z" transform="translate(-43.47 -38.51)"/><path class="cls-1" d="M319.8,39.46V76.79h-6.67L287.55,39.46h6.67l20,29.71V39.46ZM287.55,60.21l5.57,0V76.79h-5.57Z" transform="translate(-43.47 -38.51)"/><path class="cls-1" d="M356.55,58.12c0,10.3-8,18.62-17.91,18.67h-8.17V72.21h8.07a11.62,11.62,0,0,0,8.75-4A15,15,0,0,0,351,58.12a14.88,14.88,0,0,0-3.74-10A11.64,11.64,0,0,0,338.54,44h-8.07V39.46h8.17C348.54,39.51,356.55,47.87,356.55,58.12Z" transform="translate(-43.47 -38.51)"/><path class="cls-1" d="M401.28,76.79h-5.61L384.36,49.25l-.1-.3v0h0v0l-.1.3L372.82,76.79h-5.61l15.33-37.33H386Z" transform="translate(-43.47 -38.51)"/><path class="cls-1" d="M100.79,38.51a19.17,19.17,0,0,0-6.77,37L95.46,71a14.76,14.76,0,0,1-8.1-13.42c0-7.56,5.57-14.53,13.43-14.53s13.44,7,13.44,14.53a14.73,14.73,0,0,1-8.11,13.43l1.44,4.49a19.17,19.17,0,0,0-6.77-37Z" transform="translate(-43.47 -38.51)"/></svg>